<?xml version="1.0" standalone="no"?>
<!DOCTYPE svg PUBLIC "-//W3C//DTD SVG 20010904//EN"
 "http://www.w3.org/TR/2001/REC-SVG-20010904/DTD/svg10.dtd">
<svg version="1.0" xmlns="http://www.w3.org/2000/svg"
 width="16.000000pt" height="16.000000pt" viewBox="0 0 16.000000 16.000000"
 preserveAspectRatio="xMidYMid meet">
<metadata>
Created by potrace 1.11, written by Peter Selinger 2001-2013
</metadata>
<g transform="translate(0.000000,16.000000) scale(0.002488,-0.002488)"
fill="#000000" stroke="none">
<path d="M51 5845 c-17 -20 -32 -41 -32 -48 -1 -11 -3 -18 -8 -42 -7 -26 -5
-205 2 -205 4 0 7 -13 7 -28 0 -15 4 -32 10 -38 5 -5 13 -32 17 -59 3 -28 12
-56 20 -63 7 -7 13 -24 13 -36 0 -13 9 -31 19 -40 11 -10 17 -24 14 -32 -3 -8
2 -17 11 -20 9 -3 16 -15 16 -25 0 -11 7 -22 15 -25 8 -4 15 -13 15 -20 0 -8
7 -17 15 -20 8 -4 13 -9 11 -13 -3 -4 13 -27 35 -52 21 -24 39 -50 39 -56 0
-7 6 -13 13 -13 8 0 20 -11 27 -25 7 -14 17 -25 21 -25 3 0 37 -29 74 -65 36
-36 70 -65 75 -65 5 0 15 -6 22 -13 19 -19 173 -117 184 -117 5 0 26 -11 46
-25 20 -14 44 -25 52 -25 9 0 16 -4 16 -10 0 -5 7 -10 16 -10 9 0 28 -7 42
-15 15 -8 50 -24 77 -36 28 -12 57 -27 65 -34 8 -8 18 -13 21 -12 12 3 180
-107 215 -140 18 -18 36 -33 40 -33 11 0 84 -77 84 -89 0 -6 5 -11 11 -11 16
0 39 -26 39 -44 0 -9 3 -15 8 -14 11 4 52 -35 52 -49 0 -7 3 -13 8 -13 4 0 16
-17 27 -37 11 -21 25 -41 31 -45 7 -5 10 -17 7 -28 -4 -14 0 -20 11 -20 10 0
16 -9 16 -25 0 -13 8 -29 18 -34 14 -7 18 -18 14 -40 -3 -23 0 -31 11 -31 15
0 27 -28 27 -67 0 -13 4 -23 8 -23 5 0 9 -6 10 -12 1 -7 9 -41 18 -75 20 -76
15 -100 -18 -80 -13 8 -108 63 -213 122 -104 59 -193 113 -197 119 -4 6 -8 7
-8 3 0 -4 -6 -2 -14 5 -11 11 -4 14 43 19 l56 6 -63 1 c-54 2 -63 0 -60 -15 3
-14 262 -168 588 -349 52 -29 129 -74 170 -100 41 -26 122 -72 180 -102 129
-67 192 -103 205 -118 6 -6 79 -51 163 -99 83 -48 152 -90 152 -95 0 -4 60 -8
133 -9 72 -1 445 -10 827 -21 860 -25 800 -24 800 -2 0 16 -97 79 -107 69 -2
-3 18 -17 46 -33 28 -15 51 -31 51 -36 0 -4 -43 -8 -95 -8 -52 0 -95 2 -95 5
0 14 41 83 64 108 14 15 26 34 26 42 0 8 16 29 35 48 19 19 35 39 35 45 0 6 9
16 20 22 11 6 20 17 20 24 0 7 11 18 25 24 14 6 25 18 25 27 0 8 5 15 10 15 6
0 18 8 28 18 38 35 72 62 82 62 5 0 13 6 17 14 4 8 17 14 28 13 11 -1 19 3 18
9 -2 10 77 52 222 120 31 15 106 36 190 55 28 6 57 14 65 17 8 2 22 6 30 7 8
1 44 7 80 13 36 6 92 14 125 17 107 10 306 61 372 94 21 10 67 32 103 47 36
16 71 34 78 41 6 6 21 15 32 18 11 3 20 10 20 14 0 4 25 20 54 36 30 16 53 32
50 37 -3 4 2 8 11 8 8 0 18 7 21 15 4 8 12 15 18 15 7 0 18 11 24 25 6 14 18
25 27 25 8 0 15 6 15 13 0 8 12 19 26 25 14 7 23 16 20 21 -6 9 30 51 44 51 6
0 10 7 10 16 0 8 17 41 38 72 38 55 49 78 50 96 0 5 4 12 9 15 15 10 43 127
43 176 0 48 -20 108 -40 120 -23 14 -86 11 -137 -6 -29 -10 -63 -16 -77 -13
-19 3 -25 -1 -30 -21 -4 -14 -10 -24 -14 -24 -24 4 -40 -4 -45 -22 -3 -13 -12
-19 -24 -17 -12 2 -18 -3 -17 -14 1 -10 -4 -18 -12 -18 -8 0 -14 -4 -14 -10 0
-5 -6 -10 -14 -10 -8 0 -16 -7 -20 -15 -3 -8 -12 -15 -21 -15 -8 0 -15 -4 -15
-10 0 -5 -7 -10 -15 -10 -9 0 -18 -7 -21 -15 -4 -10 -13 -13 -25 -10 -11 4
-19 2 -19 -5 0 -14 -25 -40 -39 -40 -6 0 -32 -13 -58 -29 -27 -16 -68 -35 -93
-42 -25 -7 -47 -16 -50 -20 -6 -7 -137 -42 -160 -42 -8 0 -21 -4 -28 -10 -7
-5 -15 -7 -18 -4 -3 3 -20 1 -37 -4 -17 -5 -51 -11 -76 -14 -26 -2 -66 -7 -91
-10 -25 -3 -76 -7 -115 -10 -153 -10 -341 -29 -374 -39 -9 -3 -29 -8 -46 -10
-95 -16 -140 -28 -235 -61 -57 -20 -121 -45 -142 -56 -20 -10 -44 -19 -53 -19
-8 0 -15 -4 -15 -8 0 -5 -19 -17 -43 -28 -23 -10 -51 -27 -61 -36 -11 -10 -24
-18 -28 -18 -5 0 -18 -9 -30 -20 -12 -11 -28 -20 -35 -20 -7 0 -13 -4 -13 -8
0 -5 -21 -24 -47 -42 -25 -18 -55 -44 -66 -57 -12 -13 -27 -23 -34 -23 -7 0
-13 -7 -13 -15 0 -8 -5 -15 -11 -15 -13 0 -39 -25 -39 -39 0 -5 -9 -13 -20
-16 -11 -3 -20 -15 -20 -26 0 -11 -11 -24 -25 -31 -14 -6 -25 -19 -25 -29 0
-10 -14 -28 -30 -41 -17 -12 -30 -29 -30 -38 0 -9 -20 -37 -45 -62 -28 -28
-45 -55 -45 -69 0 -13 -11 -42 -25 -64 l-24 -40 -1 47 c0 26 4 49 9 52 5 3 7
15 4 26 -3 11 0 26 6 34 6 7 9 21 5 30 -3 9 -2 16 3 16 5 0 9 15 10 34 1 19 5
41 9 48 5 7 9 18 10 24 4 23 37 84 45 84 5 0 9 9 9 20 0 11 4 20 9 20 5 0 13
9 16 21 4 11 19 33 33 49 15 16 49 54 77 85 27 30 53 55 57 55 4 0 20 12 35
26 15 15 45 37 65 50 50 32 210 171 228 198 31 47 55 81 60 86 18 18 73 131
89 185 7 22 15 47 19 55 8 20 11 38 16 78 2 19 7 48 10 66 3 18 1 54 -4 81 -6
28 -12 57 -14 65 -10 56 -50 100 -89 100 -21 0 -41 -12 -73 -45 -24 -24 -44
-49 -44 -55 0 -6 -7 -13 -15 -16 -9 -4 -15 -11 -14 -18 4 -23 -52 -143 -80
-173 -12 -12 -21 -28 -21 -36 0 -16 -70 -99 -130 -153 -70 -62 -192 -154 -206
-154 -3 0 -29 -18 -59 -40 -29 -22 -72 -49 -93 -60 -22 -12 -43 -28 -46 -36
-3 -8 -10 -14 -15 -14 -19 0 -231 -220 -231 -239 0 -4 -8 -16 -18 -27 -9 -10
-28 -41 -42 -69 -14 -27 -28 -51 -32 -53 -4 -2 -5 -9 -2 -17 3 -7 1 -16 -5
-20 -6 -3 -11 -17 -11 -31 0 -13 -4 -24 -10 -24 -5 0 -10 -9 -10 -20 0 -11 -3
-20 -8 -20 -4 0 -7 -16 -6 -35 1 -20 -4 -42 -12 -50 -17 -17 -18 -32 -3 -37 8
-3 7 -9 -3 -18 -12 -12 -14 -49 -13 -195 1 -99 -1 -192 -3 -207 l-4 -28 -162
0 c-88 0 -167 4 -174 8 -9 7 -7 13 9 28 24 21 109 141 109 153 0 4 11 13 25
19 14 6 25 18 25 27 0 30 55 135 68 130 9 -3 13 3 11 18 -1 12 6 40 17 62 10
22 19 45 19 50 0 6 4 15 7 21 4 5 17 57 29 115 23 106 31 303 16 394 -30 183
-33 195 -68 282 -16 39 -29 77 -29 83 0 7 -7 26 -15 43 -28 61 -92 242 -109
310 -14 56 -27 151 -28 202 -1 29 12 193 17 215 2 14 8 39 11 55 3 17 14 43
23 58 13 23 14 29 2 36 -11 7 -10 11 5 19 19 11 19 11 0 25 -10 8 -16 19 -13
24 4 6 -2 35 -12 64 -15 46 -22 55 -47 60 -74 14 -202 -78 -246 -178 -10 -23
-23 -45 -28 -48 -6 -3 -10 -14 -10 -24 0 -10 -7 -24 -15 -31 -9 -7 -14 -19
-11 -27 3 -7 2 -13 -2 -13 -9 0 -40 -126 -50 -205 -18 -140 2 -341 46 -465 3
-8 6 -19 7 -25 0 -5 5 -19 9 -30 29 -74 53 -170 66 -265 11 -80 9 -277 -4
-310 -3 -8 -8 -30 -10 -49 -2 -18 -8 -36 -13 -40 -6 -3 -13 -19 -17 -36 -3
-16 -8 -36 -9 -43 -2 -8 -8 -17 -14 -20 -5 -4 -13 -20 -17 -35 -8 -34 -26 -26
-26 11 0 15 -6 53 -14 84 -8 36 -10 60 -4 66 14 14 0 52 -18 52 -8 0 -12 4 -9
10 3 5 -1 23 -10 39 -8 17 -15 40 -15 53 0 13 -7 34 -16 46 -8 12 -13 30 -10
40 4 12 -3 27 -18 41 -15 14 -22 30 -19 42 3 11 -1 21 -11 25 -9 3 -16 17 -16
30 0 14 -7 27 -15 30 -8 4 -15 15 -15 25 0 11 -6 22 -14 25 -8 3 -17 16 -20
30 -4 13 -11 24 -16 24 -6 0 -10 9 -10 19 0 10 -7 22 -16 25 -8 3 -13 10 -10
15 3 5 -1 11 -9 15 -8 3 -15 12 -15 21 0 8 -6 15 -13 15 -8 0 -20 12 -28 28
-8 15 -24 35 -36 45 -13 10 -23 25 -23 33 0 8 -5 14 -10 14 -14 0 -60 46 -60
60 0 5 -5 10 -10 10 -6 0 -39 24 -74 54 -35 29 -92 73 -127 96 -35 24 -66 46
-69 50 -10 12 -257 130 -273 130 -9 0 -17 4 -17 8 0 4 -33 19 -72 32 -40 14
-74 28 -76 33 -2 4 -10 7 -17 7 -8 0 -31 7 -52 16 -21 9 -47 20 -58 25 -11 4
-51 22 -88 38 -38 17 -73 31 -78 31 -5 0 -9 5 -9 10 0 6 -7 10 -15 10 -9 0
-32 11 -53 24 -20 12 -47 26 -59 30 -13 4 -23 11 -23 15 0 4 -18 17 -40 30
-22 12 -40 26 -40 32 0 5 -6 9 -14 9 -17 0 -176 151 -176 167 0 7 -9 15 -20
18 -11 4 -18 11 -15 16 4 5 -1 12 -9 15 -9 3 -16 12 -16 19 0 7 -7 15 -15 19
-8 3 -15 12 -15 21 0 8 -5 15 -10 15 -6 0 -16 12 -22 28 -7 15 -20 35 -30 45
-10 10 -18 27 -18 37 0 14 -7 20 -21 20 -18 0 -20 4 -14 29 6 28 4 30 -22 28
-15 -2 -33 2 -39 8 -32 29 -55 45 -64 45 -6 0 -10 3 -10 8 0 4 -22 8 -49 10
-44 3 -51 0 -80 -33z m296 -573 c12 -15 22 -39 23 -53 1 -64 -73 -63 -109 2
-22 38 -22 41 -6 65 13 21 22 24 43 19 15 -3 37 -18 49 -33z m2228 -186 c0
-28 -6 -42 -20 -52 -43 -28 -67 35 -29 77 28 31 49 20 49 -25z m-2020 -10 c11
-4 33 -25 49 -48 27 -38 28 -43 15 -67 -18 -32 -48 -37 -94 -15 -37 17 -65 58
-65 93 0 23 38 53 60 47 8 -3 24 -7 35 -10z m2007 -193 c33 -30 17 -113 -22
-113 -22 0 -50 36 -50 65 0 24 26 65 42 65 6 0 20 -7 30 -17z m-1654 -20 c54
-34 72 -56 72 -89 0 -34 -28 -64 -60 -64 -63 0 -133 48 -143 97 -11 58 71 94
131 56z m375 -218 c76 -31 110 -112 66 -156 -58 -58 -213 45 -193 127 11 44
63 56 127 29z m1338 -51 c40 -43 26 -134 -21 -134 -30 0 -60 48 -60 94 0 68
37 87 81 40z m1609 -114 c0 -29 -32 -66 -49 -55 -28 17 5 100 34 89 8 -4 15
-18 15 -34z m-2567 -151 c32 -36 37 -48 37 -90 0 -40 -4 -51 -24 -64 -31 -21
-67 -12 -110 29 -58 54 -69 135 -22 169 26 18 81 -2 119 -44z m2460 -24 c-3
-32 -38 -67 -63 -62 -9 1 -16 15 -18 34 -2 23 3 35 20 47 36 26 63 17 61 -19z
m-1417 -49 c13 -26 14 -40 5 -73 -18 -66 -67 -68 -96 -3 -44 98 45 173 91 76z
m3348 -92 c21 -20 20 -32 -4 -71 -12 -20 -32 -36 -52 -41 -93 -25 -91 80 2
117 34 13 36 13 54 -5z m-2120 0 c22 -8 20 -57 -2 -77 -10 -9 -32 -20 -49 -23
-25 -5 -33 -2 -42 14 -15 29 -15 30 20 63 32 30 45 34 73 23z m1857 -166 c15
-24 9 -44 -21 -73 -25 -24 -39 -29 -82 -30 -45 0 -54 3 -64 24 -26 52 54 116
124 100 19 -4 39 -14 43 -21z m-3946 -51 c38 -38 52 -92 39 -146 -18 -73 -106
-65 -144 13 -27 56 -26 113 2 143 30 32 64 29 103 -10z m1893 0 c2 -20 -5 -36
-27 -58 -65 -64 -124 -10 -65 60 21 26 33 31 58 29 26 -2 32 -8 34 -31z
m-1012 -23 c4 -13 4 -39 0 -56 -18 -90 -110 -92 -110 -3 0 89 90 137 110 59z
m2684 -19 c44 -40 14 -105 -59 -125 -55 -15 -77 -12 -110 16 -35 29 -38 49
-15 83 35 49 142 64 184 26z m-427 -97 c19 -10 23 -58 6 -90 -14 -25 -84 -57
-127 -58 -66 0 -103 40 -82 90 27 65 132 95 203 58z m-1449 -64 c32 -31 6
-109 -41 -120 -27 -7 -53 14 -53 43 0 22 28 71 47 82 24 14 29 14 47 -5z
m1030 -106 c22 -30 20 -52 -6 -98 -22 -38 -89 -80 -126 -80 -21 0 -57 29 -65
53 -8 22 8 65 36 96 48 52 134 67 161 29z m-1964 -3 c20 -25 6 -96 -25 -122
-30 -27 -70 -30 -83 -7 -5 9 -6 35 -1 57 12 67 78 110 109 72z m-680 -145 c33
-26 14 -26 -25 0 -16 11 -23 20 -15 20 8 0 26 -9 40 -20z m1534 -32 c33 -47 9
-128 -38 -128 -28 0 -36 17 -36 71 0 26 7 46 20 59 26 26 35 25 54 -2z m-1073
-98 c27 -15 24 -62 -6 -99 l-26 -30 -37 21 c-20 12 -39 23 -41 24 -12 10 15
58 42 74 37 23 42 24 68 10z m1854 -36 c21 -13 25 -24 25 -63 0 -39 -6 -53
-38 -89 -29 -35 -45 -45 -79 -49 -39 -5 -42 -3 -58 27 -14 27 -15 40 -6 70 14
49 47 89 85 106 40 17 42 17 71 -2z m-779 -162 c43 -28 41 -115 -3 -135 -22
-10 -28 -8 -44 12 -27 33 -25 95 3 115 25 18 29 19 44 8z"/>
<path d="M722 4358 c-7 -7 -12 -16 -12 -21 0 -5 67 -93 149 -197 82 -103 154
-196 159 -207 10 -18 -13 -30 -301 -158 -295 -132 -336 -154 -337 -182 0 -6
98 -81 218 -166 119 -86 225 -162 235 -169 17 -13 7 -52 -191 -703 -116 -380
-210 -704 -210 -722 -1 -29 43 -67 755 -654 667 -550 758 -621 774 -611 12 8
19 8 19 2 0 -5 8 -10 18 -10 9 -1 452 50 985 112 872 102 967 115 967 130 0
10 6 18 13 18 8 0 78 253 201 723 104 397 192 726 196 730 6 7 384 42 515 48
17 1 23 3 14 6 -28 7 -532 -36 -538 -46 -4 -5 -92 -334 -196 -730 -126 -482
-194 -721 -202 -721 -7 0 -13 -8 -13 -18 0 -16 -88 -28 -971 -132 -823 -96
-972 -111 -980 -99 -6 11 -12 12 -27 3 -16 -11 -111 64 -768 606 l-750 618 2
39 c1 21 93 335 204 698 111 363 203 671 206 685 4 23 -16 40 -226 188 -126
90 -232 167 -234 171 -12 19 46 50 331 177 184 82 313 145 313 152 0 8 -72
104 -159 215 -128 161 -158 204 -148 215 9 12 50 13 227 9 158 -3 182 -2 90 3
-199 12 -314 12 -328 -2z"/>
<path d="M1198 4343 c7 -3 16 -2 19 1 4 3 -2 6 -13 5 -11 0 -14 -3 -6 -6z"/>
<path d="M800 4308 c0 -7 59 -87 131 -178 72 -91 135 -175 140 -187 9 -25 24
-30 35 -12 5 8 67 9 220 4 163 -5 214 -4 214 5 0 37 -137 234 -217 312 l-48
48 -200 10 c-260 13 -275 13 -275 -2z"/>
<path d="M2283 4303 c9 -2 23 -2 30 0 6 3 -1 5 -18 5 -16 0 -22 -2 -12 -5z"/>
<path d="M2368 4293 c23 -2 59 -2 80 0 20 2 1 4 -43 4 -44 0 -61 -2 -37 -4z"/>
<path d="M2300 4254 c0 0 15 -30 32 -65 18 -35 51 -118 73 -184 34 -99 45
-121 62 -123 19 -3 22 3 28 50 7 58 3 303 -5 311 -4 4 -190 15 -190 11z"/>
<path d="M3240 4008 c-36 -16 -85 -39 -109 -49 -24 -11 -42 -22 -39 -25 6 -6
195 79 211 95 15 15 11 14 -63 -21z"/>
<path d="M3158 3917 l-68 -32 0 -47 c0 -65 18 -62 65 10 21 31 47 67 58 80 11
12 19 22 16 21 -2 0 -34 -15 -71 -32z"/>
<path d="M1383 3883 c32 -2 81 -2 110 0 29 2 3 3 -58 3 -60 0 -84 -1 -52 -3z"/>
<path d="M3861 3886 c14 -13 69 -35 69 -28 0 9 -44 32 -62 32 -6 0 -9 -2 -7
-4z"/>
<path d="M768 3743 c-170 -76 -308 -142 -308 -148 0 -5 325 -241 721 -524 587
-419 723 -512 739 -505 64 31 680 442 679 454 0 16 -1465 851 -1503 857 -12 2
-159 -59 -328 -134z"/>
<path d="M3781 3815 c-52 -57 -141 -194 -141 -217 0 -31 27 -19 66 30 21 26
71 82 112 124 l74 76 -31 16 c-16 9 -32 16 -34 16 -3 0 -23 -20 -46 -45z"/>
<path d="M4705 3432 c6 -6 87 -53 180 -104 238 -130 242 -115 -75 -248 -238
-100 -250 -106 -250 -132 0 -18 56 -107 181 -287 99 -144 183 -261 186 -261 7
0 -7 22 -194 292 -89 130 -163 245 -163 255 0 15 50 40 250 123 l250 105 -2
34 c-3 31 -9 38 -83 78 -158 88 -290 156 -280 145z"/>
<path d="M4589 3362 c-100 -77 -258 -250 -246 -269 3 -4 43 -28 89 -52 l83
-44 231 97 c257 109 259 110 250 124 -4 7 -287 166 -337 190 -3 1 -34 -20 -70
-46z"/>
<path d="M687 2535 c-115 -377 -207 -691 -205 -699 4 -18 1460 -1217 1473
-1213 8 3 630 2178 660 2310 4 17 2 27 -4 27 -7 0 -163 -98 -349 -218 -187
-122 -347 -218 -359 -218 -12 0 -235 153 -509 348 -268 191 -490 348 -493 348
-3 0 -100 -308 -214 -685z"/>
<path d="M2667 2963 c-9 -15 -657 -2320 -657 -2337 0 -9 3 -16 8 -16 10 0
1907 222 1908 224 5 6 374 1426 374 1439 0 13 -6 16 -22 13 -65 -14 -1140 -88
-1146 -80 -4 6 -14 13 -23 16 -9 4 -107 173 -219 377 -112 204 -207 371 -211
371 -4 0 -10 -3 -12 -7z"/>
<path d="M2743 2953 c2 -10 90 -173 194 -363 178 -322 192 -345 219 -348 16
-1 406 27 866 63 461 36 842 65 848 65 5 0 10 5 10 11 0 6 -83 131 -184 278
l-185 267 -853 22 c-1014 27 -922 27 -915 5z"/>
</g>
</svg>
